<?xml version="1.0" encoding="utf-8"?>
<!-- Generator: Adobe Illustrator 21.0.0, SVG Export Plug-In . SVG Version: 6.00 Build 0)  -->
<svg version="1.0" id="Layer_1" xmlns="http://www.w3.org/2000/svg" xmlns:xlink="http://www.w3.org/1999/xlink" x="0px" y="0px"
	 viewBox="0 0 201 46" enable-background="new 0 0 201 46" xml:space="preserve">
<g>
	<path fill="#FFFFFF" d="M7.24,39.216l-0.899,2.75H5.283V5.099h-3.86V3.353H7.24v20.1c2.063-2.169,4.654-3.862,8.463-3.862
		c5.978,0,10.632,4.707,10.632,11.425c0,6.401-4.601,11.32-11.109,11.32C12.106,42.337,9.197,41.015,7.24,39.216z M24.272,31.017
		c0-5.659-3.544-9.679-8.781-9.679c-3.491,0-6.241,1.693-8.251,4.073v12.007c1.904,1.746,4.654,3.174,8.04,3.174
		C20.516,40.591,24.272,36.571,24.272,31.017z"/>
	<path fill="#FFFFFF" d="M50.551,39.375c-0.687-1.27-0.952-2.804-0.952-4.603V21.708h-3.862v-1.746h5.819v14.599
		c0,1.482,0.212,2.751,0.687,3.703c0.794,1.481,2.222,2.275,4.391,2.275c3.226,0,6.082-2.328,8.357-4.972V21.708h-3.809v-1.746
		h5.766v20.259h3.86v1.746h-5.765v-4.654c-2.01,2.591-5.237,5.025-8.675,5.025C53.409,42.337,51.557,41.172,50.551,39.375z"/>
	<path fill="#FFFFFF" d="M89.948,40.221h3.809V5.099h-3.809V3.353h5.766v28.722l11.531-10.421h-5.237v-1.693h11.69v1.746h-3.915
		l-7.987,7.194l7.934,11.319h3.968v1.746h-5.131l-8.199-12.007l-4.654,4.232v6.029h3.966v1.746h-9.732V40.221z"/>
	<path fill="#FFFFFF" d="M132.255,40.221h3.809V5.099h-3.809V3.353h5.766v28.722l11.531-10.421h-5.237v-1.693h11.69v1.746h-3.915
		l-7.987,7.194l7.934,11.319h3.968v1.746h-5.131l-8.199-12.007l-4.654,4.232v6.029h3.966v1.746h-9.732V40.221z"/>
	<path fill="#FFFFFF" d="M179.163,39.375c-0.687-1.27-0.952-2.804-0.952-4.603V21.708h-3.862v-1.746h5.819v14.599
		c0,1.482,0.212,2.751,0.687,3.703c0.794,1.481,2.222,2.275,4.391,2.275c3.226,0,6.082-2.328,8.357-4.972V21.708h-3.809v-1.746
		h5.766v20.259h3.86v1.746h-5.765v-4.654c-2.01,2.591-5.237,5.025-8.675,5.025C182.021,42.337,180.169,41.172,179.163,39.375z"/>
</g>
</svg>
