<?xml version="1.0" encoding="utf-8"?>
<!-- Generator: Adobe Illustrator 21.0.0, SVG Export Plug-In . SVG Version: 6.00 Build 0)  -->
<svg version="1.0" id="Layer_1" xmlns="http://www.w3.org/2000/svg" xmlns:xlink="http://www.w3.org/1999/xlink" x="0px" y="0px"
	 viewBox="0 0 43 28" enable-background="new 0 0 43 28" xml:space="preserve">
<g>
	<g>
		<path fill="#FFFFFF" d="M1.795,26.474L1.607,27.05H1.386v-7.713H0.578v-0.365h1.217v4.205c0.432-0.454,0.974-0.808,1.771-0.808
			c1.251,0,2.224,0.985,2.224,2.39c0,1.339-0.963,2.368-2.324,2.368C2.813,27.127,2.205,26.851,1.795,26.474z M5.358,24.759
			c0-1.184-0.741-2.025-1.837-2.025c-0.73,0-1.306,0.354-1.726,0.852v2.512c0.398,0.365,0.974,0.664,1.682,0.664
			C4.573,26.762,5.358,25.921,5.358,24.759z"/>
		<path fill="#FFFFFF" d="M10.856,26.508c-0.144-0.266-0.199-0.587-0.199-0.963v-2.733H9.849v-0.365h1.217V25.5
			c0,0.31,0.044,0.576,0.144,0.775c0.166,0.31,0.465,0.476,0.919,0.476c0.675,0,1.272-0.487,1.748-1.04v-2.899H13.08v-0.365h1.206
			v4.238h0.808v0.365h-1.206v-0.974c-0.421,0.542-1.096,1.051-1.815,1.051C11.454,27.127,11.067,26.884,10.856,26.508z"/>
		<path fill="#FFFFFF" d="M19.098,26.685h0.797v-7.348h-0.797v-0.365h1.206v6.009l2.412-2.18h-1.096v-0.354h2.445v0.365h-0.819
			l-1.671,1.505l1.66,2.368h0.83v0.365h-1.073l-1.715-2.512l-0.974,0.885v1.261h0.83v0.365h-2.036V26.685z"/>
		<path fill="#FFFFFF" d="M27.949,26.685h0.797v-7.348h-0.797v-0.365h1.206v6.009l2.412-2.18h-1.096v-0.354h2.445v0.365h-0.819
			l-1.671,1.505l1.66,2.368h0.83v0.365h-1.073l-1.715-2.512l-0.974,0.885v1.261h0.83v0.365h-2.036V26.685z"/>
		<path fill="#FFFFFF" d="M37.762,26.508c-0.144-0.266-0.199-0.587-0.199-0.963v-2.733h-0.808v-0.365h1.217V25.5
			c0,0.31,0.044,0.576,0.144,0.775c0.166,0.31,0.465,0.476,0.919,0.476c0.675,0,1.272-0.487,1.748-1.04v-2.899h-0.797v-0.365h1.206
			v4.238H42v0.365h-1.206v-0.974c-0.421,0.542-1.096,1.051-1.815,1.051C38.36,27.127,37.972,26.884,37.762,26.508z"/>
	</g>
	<g>
		<path fill="#FFFFFF" d="M21.027,6.51c-0.548,0-0.979,0.266-1.294,0.639v1.883c0.299,0.274,0.73,0.498,1.261,0.498
			c0.821,0,1.41-0.63,1.41-1.502C22.404,7.14,21.849,6.51,21.027,6.51z"/>
		<path fill="#FFFFFF" d="M20.592,0.664c-3.421,0-6.194,2.773-6.194,6.194c0,3.421,2.773,6.194,6.194,6.194
			c0.479,0,0.942-0.059,1.39-0.162l-0.218,2.144l3.191-3.781c1.13-1.122,1.831-2.677,1.831-4.395
			C26.787,3.437,24.013,0.664,20.592,0.664z M20.985,9.804c-0.489,0-0.946-0.207-1.253-0.489l-0.141,0.431h-0.166V3.962H18.82V3.689
			h0.912v3.153c0.324-0.34,0.73-0.606,1.328-0.606c0.937,0,1.668,0.738,1.668,1.792C22.728,9.032,22.006,9.804,20.985,9.804z"/>
	</g>
</g>
</svg>
