<?xml version="1.0" encoding="utf-8"?>
<!-- Generator: Adobe Illustrator 20.1.0, SVG Export Plug-In . SVG Version: 6.00 Build 0)  -->
<svg version="1.0" id="Layer_1" xmlns="http://www.w3.org/2000/svg" xmlns:xlink="http://www.w3.org/1999/xlink" x="0px" y="0px"
	 viewBox="0 0 75 48" enable-background="new 0 0 75 48" xml:space="preserve">
<g>
	<g>
		<path d="M2.113,46.821l-0.34,1.042H1.371V33.898h-1.462v-0.661h2.204v7.614c0.782-0.822,1.763-1.463,3.206-1.463
			c2.264,0,4.027,1.783,4.027,4.328c0,2.425-1.743,4.288-4.208,4.288C3.956,48.003,2.854,47.503,2.113,46.821z M8.564,43.715
			c0-2.144-1.342-3.666-3.326-3.666c-1.322,0-2.364,0.641-3.126,1.543v4.548c0.721,0.661,1.763,1.202,3.045,1.202
			C7.142,47.342,8.564,45.819,8.564,43.715z"/>
		<path d="M18.518,46.881c-0.26-0.481-0.36-1.062-0.36-1.743v-4.949h-1.463v-0.661h2.204v5.53c0,0.561,0.08,1.042,0.26,1.403
			c0.301,0.561,0.842,0.862,1.663,0.862c1.222,0,2.304-0.882,3.166-1.883v-5.25h-1.443v-0.661h2.184v7.674h1.462v0.661h-2.184V46.1
			c-0.761,0.982-1.984,1.903-3.286,1.903C19.601,48.003,18.899,47.562,18.518,46.881z"/>
		<path d="M33.441,47.202h1.443V33.898h-1.443v-0.661h2.184v10.88l4.368-3.947H38.01v-0.641h4.428v0.661h-1.483l-3.025,2.725
			l3.005,4.288h1.503v0.661h-1.944l-3.105-4.548l-1.763,1.603v2.284h1.502v0.661h-3.686V47.202z"/>
		<path d="M49.467,47.202h1.443V33.898h-1.443v-0.661h2.184v10.88l4.368-3.947h-1.984v-0.641h4.428v0.661H56.98l-3.025,2.725
			l3.005,4.288h1.503v0.661H56.52l-3.105-4.548l-1.763,1.603v2.284h1.502v0.661h-3.686V47.202z"/>
		<path d="M67.235,46.881c-0.26-0.481-0.36-1.062-0.36-1.743v-4.949h-1.463v-0.661h2.204v5.53c0,0.561,0.08,1.042,0.26,1.403
			c0.301,0.561,0.842,0.862,1.663,0.862c1.222,0,2.304-0.882,3.166-1.883v-5.25h-1.443v-0.661h2.184v7.674h1.462v0.661h-2.184V46.1
			c-0.761,0.982-1.984,1.903-3.286,1.903C68.317,48.003,67.616,47.562,67.235,46.881z"/>
	</g>
	<g>
		<path d="M36.934,10.588c-0.992,0-1.772,0.481-2.344,1.157v3.41c0.541,0.496,1.322,0.901,2.284,0.901
			c1.487,0,2.554-1.141,2.554-2.719C39.429,11.73,38.422,10.588,36.934,10.588z"/>
		<path d="M36.147,0.003c-6.194,0-11.215,5.022-11.215,11.216c0,6.194,5.021,11.216,11.215,11.216c0.867,0,1.706-0.108,2.516-0.294
			l-0.394,3.882l5.778-6.846c2.047-2.032,3.315-4.846,3.315-7.958C47.363,5.025,42.342,0.003,36.147,0.003z M36.859,16.553
			c-0.886,0-1.713-0.376-2.268-0.886l-0.255,0.781h-0.3V5.976h-1.096V5.48h1.652v5.709c0.586-0.616,1.322-1.096,2.404-1.096
			c1.697,0,3.019,1.337,3.019,3.245C40.014,15.155,38.708,16.553,36.859,16.553z"/>
	</g>
</g>
</svg>
